<?xml version="1.0" encoding="UTF-8" standalone="no" ?>
<!DOCTYPE svg PUBLIC "-//W3C//DTD SVG 1.1//EN" "http://www.w3.org/Graphics/SVG/1.1/DTD/svg11.dtd">
<svg xmlns="http://www.w3.org/2000/svg" xmlns:xlink="http://www.w3.org/1999/xlink" version="1.1" width="1280" height="1024" viewBox="0 0 1280 1024" xml:space="preserve">
<desc>Created with Fabric.js 5.3.0</desc>
<defs>
</defs>
<g transform="matrix(1 0 0 1 640 512)" id="background-logo"  >
<rect style="stroke: none; stroke-width: 0; stroke-dasharray: none; stroke-linecap: butt; stroke-dashoffset: 0; stroke-linejoin: miter; stroke-miterlimit: 4; fill: rgb(255,255,255); fill-opacity: 0; fill-rule: nonzero; opacity: 1;"  paint-order="stroke"  x="-640" y="-512" rx="0" ry="0" width="1280" height="1024" />
</g>
<g transform="matrix(1.4397160299817062 0 0 1.4397160299817062 382.3375986842105 512)" id="logo-logo"  >
<g style=""  paint-order="stroke"   >
		<g transform="matrix(1.7347170886412477 0 0 -1.7347170886412477 0 0)"  >
<path style="stroke: none; stroke-width: 1; stroke-dasharray: none; stroke-linecap: butt; stroke-dashoffset: 0; stroke-linejoin: miter; stroke-miterlimit: 4; fill: rgb(30,153,96); fill-rule: nonzero; opacity: 1;"  paint-order="stroke"  transform=" translate(44.837, -40.92)" d="M 0 0 L -7.84 0 L -7.84 -7.5 L 7.16 -7.5 L 7.16 7.5 L 0 7.5 Z M 13.58 52.587 L 3.913 52.587 L 3.913 42.92 L 13.58 42.92 Z M 5.163 33.17 L 5.163 16.17 L 22.163 16.17 L 22.163 33.17 z M -89.34 7.5 L -96.84 7.5 L -96.84 -7.5 L -81.84 -7.5 L -81.84 0 L -89.34 0 z M -93.587 52.587 L -103.254 52.587 L -103.254 42.92 L -93.587 42.92 z M -94.837 33.17 L -111.837 33.17 L -111.837 16.17 L -94.837 16.17 z M -7.84 7.5 L -7.84 0 L -81.84 0 L -81.84 7.5 L -89.34 7.5 L -89.34 89.34 L 0 89.34 L 0 7.5 Z" stroke-linecap="round" />
</g>
</g>
</g>
<g transform="matrix(1.9211538461538462 0 0 1.9211538461538462 796.563870951417 472.3666888468689)" id="text-logo"  >
<g style=""  paint-order="stroke"   >
		<g transform="matrix(1 0 0 1 0 0)" id="text-logo-path-0"  >
<path style="stroke: none; stroke-width: 0; stroke-dasharray: none; stroke-linecap: butt; stroke-dashoffset: 0; stroke-linejoin: miter; stroke-miterlimit: 4; fill: rgb(30,153,96); fill-rule: nonzero; opacity: 1;"  paint-order="stroke"  transform=" translate(-103.32, 13.955)" d="M 1.6 -28 L 9.52 -2.76 C 10.68 1.04 15.96 1.04 17.12 -2.76 L 25.04 -28 L 19.2 -28 L 13.32 -9.4 L 7.44 -28 Z M 34.64 -28 L 34.64 0 L 40.24 0 L 40.24 -28 Z M 55.44 0 L 55.44 -9.2 L 49.84 -9.2 L 49.84 0 Z M 49.84 -11.2 L 55.44 -11.2 L 55.44 -19.48 C 55.44 -21.6 56.24 -22.4 58.36 -22.4 L 64.52 -22.4 C 66.64 -22.4 67.44 -21.6 67.44 -19.48 L 67.44 0 L 73.04 0 L 73.04 -19.48 C 73.04 -24.32 69.36 -28 64.52 -28 L 58.36 -28 C 53.52 -28 49.84 -24.32 49.84 -19.48 Z M 105.84 -18.8 L 105.84 -19.48 C 105.84 -24.32 102.16 -28 97.32 -28 L 91.16 -28 C 86.32 -28 82.64 -24.32 82.64 -19.48 L 82.64 -8.52 C 82.64 -3.68 86.32 0 91.16 0 L 97.32 0 C 102.16 0 105.84 -3.68 105.84 -8.52 L 105.84 -9.24 L 100.24 -9.24 L 100.24 -8.52 C 100.24 -6.4 99.44 -5.6 97.32 -5.6 L 91.16 -5.6 C 89.04 -5.6 88.24 -6.4 88.24 -8.52 L 88.24 -19.48 C 88.24 -21.6 89.04 -22.4 91.16 -22.4 L 97.32 -22.4 C 99.44 -22.4 100.24 -21.6 100.24 -19.48 L 100.24 -18.8 Z M 138.64 -5.56 L 123.96 -5.56 C 121.84 -5.56 121.04 -6.36 121.04 -8.48 L 121.04 -9.2 L 115.44 -9.2 L 115.44 -8.48 C 115.44 -3.64 119.12 0.04 123.96 0.04 L 138.64 0.04 Z M 115.44 -11.2 L 135.84 -11.2 L 135.84 -16.8 L 121.04 -16.8 L 121.04 -22.4 L 138.64 -22.4 L 138.64 -28 L 115.44 -28 Z M 153.84 0 L 153.84 -9.2 L 148.24 -9.2 L 148.24 0 Z M 148.24 -11.2 L 153.84 -11.2 L 153.84 -19.48 C 153.84 -21.6 154.64 -22.4 156.76 -22.4 L 162.92 -22.4 C 165.04 -22.4 165.84 -21.6 165.84 -19.48 L 165.84 0 L 171.44 0 L 171.44 -19.48 C 171.44 -24.32 167.76 -28 162.92 -28 L 156.76 -28 C 151.92 -28 148.24 -24.32 148.24 -19.48 Z M 190.24 -20.4 L 190.24 0 L 195.84 0 L 195.84 -20.4 Z M 181.04 -22.4 L 205.04 -22.4 L 205.04 -28 L 181.04 -28 Z" stroke-linecap="round" />
</g>
</g>
</g>
<g transform="matrix(1.9211538461538462 0 0 1.9211538461538462 796.5254478744939 542.2123569223618)" id="tagline-77089b5b-5587-456a-ac54-8ee1d9adef7d-logo"  >
<g style=""  paint-order="stroke"   >
		<g transform="matrix(1 0 0 1 0 0)" id="tagline-77089b5b-5587-456a-ac54-8ee1d9adef7d-logo-path-0"  >
<path style="stroke: none; stroke-width: 0; stroke-dasharray: none; stroke-linecap: butt; stroke-dashoffset: 0; stroke-linejoin: miter; stroke-miterlimit: 4; fill: rgb(30,153,96); fill-rule: nonzero; opacity: 1;"  paint-order="stroke"  transform=" translate(-117.2, 16.080000000000002)" d="M 24.8 -16.8 L 12.4 -16.8 L 12.4 -11.2 L 24.8 -11.2 Z M 1.6 -8.52 C 1.6 -3.68 5.28 0 10.12 0 L 16.28 0 C 21.12 0 24.8 -3.68 24.8 -8.52 L 24.8 -9.24 L 19.2 -9.24 L 19.2 -8.52 C 19.2 -6.4 18.4 -5.6 16.28 -5.6 L 10.12 -5.6 C 8 -5.6 7.2 -6.4 7.2 -8.52 L 7.2 -19.48 C 7.2 -21.6 8 -22.4 10.12 -22.4 L 24.8 -22.4 L 24.8 -28 L 10.12 -28 C 5.28 -28 1.6 -24.32 1.6 -19.48 Z M 48.8 -11.2 L 48.8 -19.48 C 48.8 -21.6 49.6 -22.4 51.72 -22.4 L 57.88 -22.4 C 60 -22.4 60.8 -21.6 60.8 -19.48 L 60.8 -8.52 C 60.8 -6.4 60 -5.6 57.88 -5.6 L 51.72 -5.6 C 49.6 -5.6 48.8 -6.4 48.8 -8.52 L 48.8 -9.2 L 43.2 -9.2 L 43.2 -8.52 C 43.2 -3.68 46.88 0 51.72 0 L 57.88 0 C 62.72 0 66.4 -3.68 66.4 -8.52 L 66.4 -19.48 C 66.4 -24.32 62.72 -28 57.88 -28 L 51.72 -28 C 46.88 -28 43.2 -24.32 43.2 -19.48 L 43.2 -11.2 Z M 50.8 -30.6 C 50.8 -29.68 51.52 -29 52.4 -29 C 53.28 -29 54 -29.68 54 -30.6 C 54 -31.52 53.28 -32.2 52.4 -32.2 C 51.52 -32.2 50.8 -31.52 50.8 -30.6 Z M 55.6 -30.6 C 55.6 -29.68 56.32 -29 57.2 -29 C 58.08 -29 58.8 -29.68 58.8 -30.6 C 58.8 -31.52 58.08 -32.2 57.2 -32.2 C 56.32 -32.2 55.6 -31.52 55.6 -30.6 Z M 84.8 -11.2 L 99.48 -11.2 C 101.6 -11.2 102.4 -10.4 102.4 -8.28 L 102.4 0 L 108 0 L 108 -8.28 C 108 -10.48 107.24 -12.48 105.92 -13.96 C 107.24 -15.4 108 -17.32 108 -19.48 C 108 -24.32 104.32 -28 99.48 -28 L 84.8 -28 Z M 84.8 0 L 90.4 0 L 90.4 -9.2 L 84.8 -9.2 Z M 90.4 -16.8 L 90.4 -22.4 L 99.48 -22.4 C 101.6 -22.4 102.4 -21.6 102.4 -19.48 C 102.4 -17.52 101.64 -16.8 99.48 -16.8 Z M 132 0 L 132 -9.2 L 126.4 -9.2 L 126.4 0 Z M 126.4 -11.2 L 132 -11.2 L 132 -19.48 C 132 -21.6 132.8 -22.4 134.92 -22.4 L 141.08 -22.4 C 143.2 -22.4 144 -21.6 144 -19.48 L 144 0 L 149.6 0 L 149.6 -19.48 C 149.6 -24.32 145.92 -28 141.08 -28 L 134.92 -28 C 130.08 -28 126.4 -24.32 126.4 -19.48 Z M 191.2 -5.56 L 176.52 -5.56 C 174.4 -5.56 173.6 -6.36 173.6 -8.48 L 173.6 -9.2 L 168 -9.2 L 168 -8.48 C 168 -3.64 171.68 0.04 176.52 0.04 L 191.2 0.04 Z M 168 -11.2 L 188.4 -11.2 L 188.4 -16.8 L 173.6 -16.8 L 173.6 -22.4 L 191.2 -22.4 L 191.2 -28 L 168 -28 Z M 209.6 -11.2 L 224.28 -11.2 C 226.4 -11.2 227.2 -10.4 227.2 -8.28 L 227.2 0 L 232.8 0 L 232.8 -8.28 C 232.8 -10.48 232.04 -12.48 230.72 -13.96 C 232.04 -15.4 232.8 -17.32 232.8 -19.48 C 232.8 -24.32 229.12 -28 224.28 -28 L 209.6 -28 Z M 209.6 0 L 215.2 0 L 215.2 -9.2 L 209.6 -9.2 Z M 215.2 -16.8 L 215.2 -22.4 L 224.28 -22.4 C 226.4 -22.4 227.2 -21.6 227.2 -19.48 C 227.2 -17.52 226.44 -16.8 224.28 -16.8 Z" stroke-linecap="round" />
</g>
</g>
</g>
<g transform="matrix(1.9211538461538462 0 0 1.9211538461538462 382.4144448380566 506.8152373044961)" id="tagline-10e7e9fa-4eb3-4430-8370-3dab35c1df01-logo"  >
<g style=""  paint-order="stroke"   >
		<g transform="matrix(1 0 0 1 0 0)" id="tagline-10e7e9fa-4eb3-4430-8370-3dab35c1df01-logo-path-0"  >
<path style="stroke: none; stroke-width: 0; stroke-dasharray: none; stroke-linecap: butt; stroke-dashoffset: 0; stroke-linejoin: miter; stroke-miterlimit: 4; fill: rgb(255,255,255); fill-rule: nonzero; opacity: 1;"  paint-order="stroke"  transform=" translate(-53.04, 27.91)" d="M 3.2 -56 L 19.04 -5.52 C 21.36 2.08 31.92 2.08 34.24 -5.52 L 50.08 -56 L 38.4 -56 L 26.64 -18.8 L 14.88 -56 Z M 102.88 -33.6 L 78.08 -33.6 L 78.08 -22.4 L 102.88 -22.4 Z M 56.48 -17.04 C 56.48 -7.36 63.84 0 73.52 0 L 85.84 0 C 95.52 0 102.88 -7.36 102.88 -17.04 L 102.88 -18.48 L 91.68 -18.48 L 91.68 -17.04 C 91.68 -12.8 90.08 -11.2 85.84 -11.2 L 73.52 -11.2 C 69.28 -11.2 67.68 -12.8 67.68 -17.04 L 67.68 -38.96 C 67.68 -43.2 69.28 -44.8 73.52 -44.8 L 102.88 -44.8 L 102.88 -56 L 73.52 -56 C 63.84 -56 56.48 -48.64 56.48 -38.96 Z" stroke-linecap="round" />
</g>
</g>
</g>
</svg>